<svg width="58" height="61" viewBox="0 0 58 61" fill="none" xmlns="http://www.w3.org/2000/svg">
<path d="M29.2811 0.00484757C27.2068 -0.0315014 25.3433 0.826333 20.6518 2.35057C11.2932 5.38935 10.4596 5.4257 4.01612 3.10178C0.0758838 1.68175 -0.0380097 1.66478 0.00560915 2.5105C0.0249953 2.86188 1.89333 4.63571 4.16151 6.45801C10.1954 11.3021 11.2908 12.8506 11.7536 17.1834C12.1316 20.7189 13.6074 24.4605 16.1688 28.0275C18.294 30.9887 19.7116 31.2626 19.5686 32.7965C19.525 33.2739 19.336 33.7803 15.6478 38.7795C15.4418 39.0606 15.3352 39.1988 15.2262 39.349C10.4305 45.9718 7.6074 50.5687 7.6074 55.8466C7.6074 60.5574 12.6236 60.5599 18.357 60.5599H39.6963C45.3982 60.5599 50.3878 60.555 50.3878 55.8466C50.3878 52.2965 49.4814 49.4492 46.4499 44.6947C46.336 44.5154 46.3336 44.2901 46.4403 44.1059C48.4855 40.6018 49.0937 35.6971 46.6026 29.164C45.3692 25.9265 45.0566 23.7068 45.1923 22.2989C45.3304 20.8934 45.7666 20.2464 46.5517 19.5727C48.1196 18.2302 51.597 17.5299 54.8417 15.5913C55.8789 14.9903 56.2327 13.6648 55.6341 12.6276C55.2537 11.9685 54.5558 11.559 53.7949 11.5444C53.3805 11.5372 52.971 11.6486 52.6196 11.8667C50.3878 13.1995 46.6753 13.7569 43.7335 16.2771C42.2625 17.5372 41.1115 19.471 40.8764 21.8773C40.6414 24.2836 41.1745 27.0994 42.5509 30.7076C43.9952 34.4976 44.1406 37.1196 43.7722 39.1164C43.6995 39.5162 43.0719 39.3539 42.7738 39.3466C40.3724 39.286 37.7747 35.4839 38.2326 32.5445C38.5162 30.7173 39.7351 30.7997 41.8312 28.0227C44.3465 24.6858 45.8272 21.0994 46.2464 17.1785C46.7092 12.8457 47.8046 11.2997 53.8385 6.45316C56.1067 4.63329 57.9774 2.85703 57.9944 2.50566C58.038 1.65751 57.9241 1.6769 53.9839 3.09694C47.538 5.42085 46.7068 5.3845 37.3482 2.34572C33.1002 0.760904 31.1058 0.0339257 29.2763 0L29.2811 0.00484757Z" fill="black"/>
<path opacity="0.3" d="M17.7197 20.7892C17.3683 20.7553 17.4192 21.6204 17.9911 22.9871C18.4103 23.9928 19.5129 25.282 20.441 25.8539C22.5711 27.1697 25.1833 27.0461 25.1833 25.6309C25.1833 24.8942 24.4079 24.3442 22.1276 23.4645C20.4459 22.8151 18.7883 21.9015 18.4394 21.4338C18.1244 21.0073 17.8796 20.8062 17.7197 20.7892ZM40.3603 20.9152C40.1616 20.9152 39.8029 21.1648 39.2916 21.6761C38.7415 22.2262 37.1204 23.0647 35.6906 23.5396C32.8893 24.4702 32.3174 24.9766 32.7609 26.1325C33.5654 28.2287 38.7658 25.9702 40.0137 22.9871C40.5856 21.6204 40.6923 20.9177 40.3627 20.9152H40.3603Z" fill="white"/>
<path d="M17.7197 21.7585C17.3683 21.7246 17.4192 22.5897 17.9911 23.9564C18.4103 24.9621 19.5129 26.2513 20.441 26.8231C22.5711 28.139 25.1833 28.0154 25.1833 26.5978C25.1833 25.8611 24.4079 25.311 22.1276 24.4314C20.4459 23.7819 18.7883 22.8684 18.4394 22.4007C18.1244 21.9742 17.8796 21.7731 17.7197 21.7561V21.7585ZM40.3603 21.8845C40.1616 21.8845 39.8029 22.1341 39.2916 22.6454C38.7415 23.1955 37.1204 24.034 35.6906 24.5089C32.8893 25.4395 32.3174 25.9459 32.7609 27.1018C33.5654 29.198 38.7658 26.9395 40.0137 23.9564C40.5856 22.5897 40.6923 21.887 40.3627 21.8845H40.3603Z" fill="white"/>
</svg>
