<svg width="1163" height="1216" viewBox="0 0 1163 1216" fill="none" xmlns="http://www.w3.org/2000/svg">
<path d="M587.137 0.0973005C545.543 -0.632297 508.177 16.5862 414.105 47.1806C226.448 108.175 209.733 108.905 80.5301 62.259C1.5216 33.7561 -0.762159 33.4156 0.112473 50.3909C0.501199 57.4437 37.9646 93.048 83.4455 129.625C204.436 226.856 226.399 257.937 235.68 344.905C243.26 415.871 272.852 490.971 324.212 562.569C366.826 622.006 395.252 627.503 392.385 658.292C391.51 667.874 387.72 678.04 313.765 778.384C309.635 784.026 307.497 786.798 305.311 789.814C209.15 922.747 152.541 1015.02 152.541 1120.95C152.541 1215.51 253.124 1215.56 368.09 1215.56H795.979C910.313 1215.56 1010.36 1215.46 1010.36 1120.95C1010.36 1049.7 992.188 992.545 931.401 897.113C929.118 893.514 929.069 888.991 931.207 885.294C972.218 814.961 984.414 716.514 934.463 585.381C909.73 520.398 903.462 475.844 906.183 447.584C908.953 419.373 917.699 406.386 933.442 392.864C964.881 365.918 1034.61 351.861 1099.67 312.949C1120.47 300.886 1127.56 274.28 1115.56 253.462C1107.93 240.232 1093.94 232.012 1078.68 231.72C1070.37 231.574 1062.16 233.812 1055.11 238.189C1010.36 264.941 935.92 276.128 876.931 326.714C847.437 352.007 824.356 390.821 819.643 439.121C814.93 487.42 825.62 543.939 853.219 616.364C882.179 692.437 885.095 745.065 877.709 785.145C876.251 793.17 863.666 789.911 857.689 789.765C809.536 788.549 757.447 712.233 766.631 653.233C772.316 616.559 796.757 618.213 838.788 562.471C889.225 495.494 918.914 423.507 927.32 344.808C936.601 257.84 958.564 226.808 1079.55 129.528C1125.04 92.9994 1162.55 57.3464 1162.89 50.2936C1163.76 33.2696 1161.48 33.6588 1082.47 62.1617C953.219 108.807 936.552 108.078 748.895 47.0833C663.715 15.2729 623.725 0.680958 587.039 0L587.137 0.0973005Z" fill="black"/>
<path opacity="0.3" d="M355.31 417.282C348.265 416.601 349.285 433.965 360.753 461.398C369.159 481.584 391.267 507.46 409.878 518.939C452.589 545.35 504.97 542.87 504.97 514.464C504.97 499.678 489.421 488.636 443.697 470.98C409.975 457.945 376.739 439.607 369.742 430.22C363.425 421.659 358.517 417.622 355.31 417.282V417.282ZM809.293 419.811C805.309 419.811 798.117 424.821 787.865 435.084C776.835 446.125 744.327 462.955 715.659 472.488C659.488 491.166 648.021 501.332 656.913 524.533C673.045 566.606 777.32 521.274 802.345 461.398C813.812 433.965 815.95 419.86 809.342 419.811H809.293Z" fill="white"/>
<path d="M355.31 436.738C348.265 436.057 349.285 453.421 360.753 480.854C369.159 501.039 391.267 526.916 409.878 538.395C452.589 564.806 504.97 562.326 504.97 533.871C504.97 519.085 489.421 508.044 443.697 490.387C409.975 477.352 376.739 459.015 369.742 449.627C363.425 441.066 358.517 437.029 355.31 436.689V436.738ZM809.293 439.267C805.309 439.267 798.117 444.277 787.865 454.54C776.835 465.581 744.327 482.41 715.659 491.944C659.488 510.621 648.021 520.787 656.913 543.988C673.045 586.062 777.32 540.73 802.345 480.854C813.812 453.421 815.95 439.316 809.342 439.267H809.293Z" fill="white"/>
<path d="M748.122 682.283C748.122 702.587 731.6 719.047 711.219 719.047C690.838 719.047 674.316 702.587 674.316 682.283C674.316 661.979 711.219 594.919 711.219 594.919C711.219 594.919 748.122 661.979 748.122 682.283Z" fill="#4E7DF4"/>
</svg>
