<svg width="261" height="313" viewBox="0 0 261 313" fill="none" xmlns="http://www.w3.org/2000/svg">
<rect x="2" y="2" width="257" height="309" rx="24" stroke="#606060" stroke-width="4" stroke-linecap="round" stroke-linejoin="round" stroke-dasharray="35 35"/>
<path d="M91.1165 175.545V193H87.929L80.3352 182.014H80.2074V193H76.517V175.545H79.7557L87.2898 186.523H87.4432V175.545H91.1165ZM100.063 193.256C98.7166 193.256 97.5575 192.983 96.5859 192.438C95.62 191.886 94.8757 191.108 94.353 190.102C93.8303 189.091 93.5689 187.895 93.5689 186.514C93.5689 185.168 93.8303 183.986 94.353 182.969C94.8757 181.952 95.6115 181.159 96.5604 180.591C97.5149 180.023 98.6342 179.739 99.9183 179.739C100.782 179.739 101.586 179.878 102.33 180.156C103.08 180.429 103.734 180.841 104.29 181.392C104.853 181.943 105.29 182.636 105.603 183.472C105.915 184.301 106.072 185.273 106.072 186.386V187.384H95.0178V185.134H102.654C102.654 184.611 102.54 184.148 102.313 183.744C102.086 183.341 101.771 183.026 101.367 182.798C100.969 182.565 100.506 182.449 99.978 182.449C99.4268 182.449 98.9382 182.577 98.5121 182.832C98.0916 183.082 97.7621 183.42 97.5234 183.847C97.2848 184.267 97.1626 184.736 97.157 185.253V187.392C97.157 188.04 97.2763 188.599 97.5149 189.071C97.7592 189.543 98.103 189.906 98.5462 190.162C98.9893 190.418 99.5149 190.545 100.123 190.545C100.526 190.545 100.896 190.489 101.231 190.375C101.566 190.261 101.853 190.091 102.092 189.864C102.33 189.636 102.512 189.358 102.637 189.028L105.995 189.25C105.825 190.057 105.475 190.761 104.947 191.364C104.424 191.96 103.748 192.426 102.918 192.761C102.094 193.091 101.143 193.256 100.063 193.256ZM110.93 193L107.367 179.909H111.04L113.069 188.705H113.188L115.302 179.909H118.907L121.055 188.653H121.165L123.16 179.909H126.825L123.271 193H119.427L117.177 184.767H117.015L114.765 193H110.93ZM133.719 178.588V175.545H148.055V178.588H142.711V193H139.063V178.588H133.719ZM152.299 193.247C151.464 193.247 150.719 193.102 150.066 192.812C149.413 192.517 148.896 192.082 148.515 191.509C148.14 190.929 147.952 190.207 147.952 189.344C147.952 188.616 148.086 188.006 148.353 187.511C148.62 187.017 148.984 186.619 149.444 186.318C149.904 186.017 150.427 185.79 151.012 185.636C151.603 185.483 152.222 185.375 152.87 185.312C153.631 185.233 154.245 185.159 154.711 185.091C155.177 185.017 155.515 184.909 155.725 184.767C155.935 184.625 156.04 184.415 156.04 184.136V184.085C156.04 183.545 155.87 183.128 155.529 182.832C155.194 182.537 154.717 182.389 154.097 182.389C153.444 182.389 152.924 182.534 152.538 182.824C152.151 183.108 151.896 183.466 151.771 183.898L148.413 183.625C148.583 182.83 148.918 182.142 149.418 181.562C149.918 180.977 150.563 180.528 151.353 180.216C152.148 179.898 153.069 179.739 154.114 179.739C154.842 179.739 155.538 179.824 156.202 179.994C156.873 180.165 157.467 180.429 157.984 180.787C158.506 181.145 158.918 181.605 159.219 182.168C159.521 182.724 159.671 183.392 159.671 184.17V193H156.228V191.185H156.126C155.915 191.594 155.634 191.955 155.282 192.267C154.93 192.574 154.506 192.815 154.012 192.991C153.518 193.162 152.947 193.247 152.299 193.247ZM153.339 190.741C153.873 190.741 154.344 190.636 154.754 190.426C155.163 190.21 155.484 189.92 155.717 189.557C155.95 189.193 156.066 188.781 156.066 188.321V186.932C155.952 187.006 155.796 187.074 155.597 187.136C155.404 187.193 155.185 187.247 154.941 187.298C154.697 187.344 154.452 187.386 154.208 187.426C153.964 187.46 153.742 187.491 153.543 187.52C153.117 187.582 152.745 187.682 152.427 187.818C152.109 187.955 151.862 188.139 151.685 188.372C151.509 188.599 151.421 188.884 151.421 189.224C151.421 189.719 151.6 190.097 151.958 190.358C152.322 190.614 152.782 190.741 153.339 190.741ZM173.38 183.642L170.056 183.847C169.999 183.562 169.877 183.307 169.69 183.08C169.502 182.847 169.255 182.662 168.948 182.526C168.647 182.384 168.286 182.312 167.866 182.312C167.303 182.312 166.829 182.432 166.442 182.67C166.056 182.903 165.863 183.216 165.863 183.608C165.863 183.92 165.988 184.185 166.238 184.401C166.488 184.616 166.917 184.79 167.525 184.92L169.894 185.398C171.167 185.659 172.116 186.08 172.741 186.659C173.366 187.239 173.678 188 173.678 188.943C173.678 189.801 173.425 190.554 172.92 191.202C172.42 191.849 171.732 192.355 170.857 192.719C169.988 193.077 168.985 193.256 167.849 193.256C166.116 193.256 164.735 192.895 163.707 192.173C162.684 191.446 162.085 190.457 161.908 189.207L165.479 189.02C165.587 189.548 165.849 189.952 166.263 190.23C166.678 190.503 167.21 190.639 167.857 190.639C168.494 190.639 169.005 190.517 169.391 190.273C169.783 190.023 169.982 189.702 169.988 189.31C169.982 188.98 169.843 188.71 169.57 188.5C169.298 188.284 168.877 188.119 168.309 188.006L166.042 187.554C164.763 187.298 163.812 186.855 163.187 186.224C162.567 185.594 162.258 184.79 162.258 183.812C162.258 182.972 162.485 182.247 162.94 181.639C163.4 181.031 164.045 180.562 164.874 180.233C165.71 179.903 166.687 179.739 167.806 179.739C169.46 179.739 170.761 180.088 171.71 180.787C172.664 181.486 173.221 182.437 173.38 183.642ZM179.254 189.233L179.263 184.878H179.791L183.984 179.909H188.152L182.518 186.489H181.658L179.254 189.233ZM175.964 193V175.545H179.595V193H175.964ZM184.146 193L180.294 187.298L182.714 184.733L188.399 193H184.146Z" fill="#606060"/>
<path d="M120.333 128H139.667M130 137.667V118.333M122.75 152.167H137.25C149.333 152.167 154.167 147.333 154.167 135.25V120.75C154.167 108.667 149.333 103.833 137.25 103.833H122.75C110.667 103.833 105.833 108.667 105.833 120.75V135.25C105.833 147.333 110.667 152.167 122.75 152.167Z" stroke="#606060" stroke-width="4.5" stroke-linecap="round" stroke-linejoin="round"/>
</svg>
