<svg width="58" height="58" viewBox="0 0 58 58" fill="none" xmlns="http://www.w3.org/2000/svg">
<path d="M50.75 16.2641H50.5566C37.7725 14.9833 25.0125 14.5 12.3733 15.7808L7.44331 16.2641C7.20349 16.2892 6.96109 16.2664 6.73012 16.1972C6.49915 16.1279 6.28419 16.0136 6.09767 15.8608C5.91115 15.708 5.75677 15.5197 5.64346 15.3069C5.53014 15.0941 5.46013 14.8609 5.43748 14.6208C5.34081 13.6058 6.06581 12.7358 7.05665 12.6391L11.9866 12.1558C24.8433 10.8508 37.8691 11.3583 50.9191 12.6391C51.91 12.7358 52.635 13.63 52.5383 14.6208C52.5018 15.0695 52.2974 15.488 51.9659 15.7926C51.6344 16.0973 51.2002 16.2656 50.75 16.2641Z" fill="#FC6F6F"/>
<path d="M20.5416 13.8233C20.445 13.8233 20.3483 13.8233 20.2275 13.7991C19.7586 13.7147 19.3416 13.4496 19.0659 13.061C18.7903 12.6725 18.6781 12.1913 18.7533 11.7208L19.285 8.55498C19.6716 6.23498 20.2033 3.02081 25.8341 3.02081H32.1658C37.8208 3.02081 38.3525 6.35581 38.715 8.57915L39.2466 11.7208C39.4158 12.7116 38.7391 13.6541 37.7725 13.7991C36.7816 13.9683 35.8391 13.2916 35.6941 12.325L35.1625 9.18331C34.8241 7.08081 34.7516 6.66998 32.19 6.66998H25.8583C23.2966 6.66998 23.2483 7.00831 22.8858 9.15915L22.33 12.3008C22.2611 12.7256 22.0434 13.112 21.7158 13.3909C21.3881 13.6698 20.9719 13.8231 20.5416 13.8233ZM36.7575 54.984H21.2425C12.8083 54.984 12.47 50.3198 12.2041 46.5498L10.6333 22.214C10.5608 21.2231 11.3341 20.3531 12.325 20.2806C13.34 20.2323 14.1858 20.9815 14.2583 21.9723L15.8291 46.3081C16.095 49.9815 16.1916 51.359 21.2425 51.359H36.7575C41.8325 51.359 41.9291 49.9815 42.1708 46.3081L43.7416 21.9723C43.8141 20.9815 44.6841 20.2323 45.675 20.2806C46.6658 20.3531 47.4391 21.199 47.3666 22.214L45.7958 46.5498C45.53 50.3198 45.1916 54.984 36.7575 54.984Z" fill="#FC6F6F"/>
<path d="M33.0116 41.6875H24.9641C23.9733 41.6875 23.1516 40.8658 23.1516 39.875C23.1516 38.8841 23.9733 38.0625 24.9641 38.0625H33.0116C34.0025 38.0625 34.8241 38.8841 34.8241 39.875C34.8241 40.8658 34.0025 41.6875 33.0116 41.6875ZM35.0416 32.0208H22.9583C21.9675 32.0208 21.1458 31.1991 21.1458 30.2083C21.1458 29.2175 21.9675 28.3958 22.9583 28.3958H35.0416C36.0325 28.3958 36.8541 29.2175 36.8541 30.2083C36.8541 31.1991 36.0325 32.0208 35.0416 32.0208Z" fill="#FC6F6F"/>
</svg>
